<?xml version="1.0" standalone="no"?>
<!DOCTYPE svg PUBLIC "-//W3C//DTD SVG 20010904//EN"
 "http://www.w3.org/TR/2001/REC-SVG-20010904/DTD/svg10.dtd">
<svg version="1.0" xmlns="http://www.w3.org/2000/svg"
 width="800.000000pt" height="800.000000pt" viewBox="0 0 800.000000 800.000000"
 preserveAspectRatio="xMidYMid meet">
<metadata>
Created by potrace 1.11, written by Peter Selinger 2001-2013
</metadata>
<g transform="translate(0.000000,800.000000) scale(0.100000,-0.100000)"
fill="#000000" stroke="none">
<path d="M0 3995 l0 -3225 4000 0 4000 0 0 3225 0 3225 -4000 0 -4000 0 0
-3225z m3388 2433 c15 -15 15 -69 0 -103 -10 -23 -9 -28 12 -42 21 -15 22 -21
17 -79 -7 -71 -8 -70 58 -54 212 52 596 75 827 51 605 -65 1149 -326 1573
-756 66 -67 125 -130 132 -141 12 -18 13 -18 39 11 95 107 88 102 94 76 5 -21
9 -18 58 38 63 72 87 79 80 23 -5 -35 -83 -203 -128 -277 l-18 -30 44 -65
c111 -162 225 -390 293 -585 212 -603 195 -1236 -46 -1825 -40 -97 -194 -394
-212 -410 -3 -3 -12 -16 -19 -30 -23 -45 -136 -197 -209 -282 -91 -106 -236
-246 -333 -322 -41 -33 -79 -62 -83 -66 -5 -5 -4 -17 2 -28 8 -15 8 -21 0 -24
-7 -2 0 -16 16 -33 14 -17 24 -24 20 -17 -16 30 9 5 78 -80 41 -51 86 -104
101 -117 14 -13 23 -28 20 -33 -3 -5 -1 -7 5 -6 9 3 46 -23 100 -70 l26 -23
-25 12 c-67 33 -248 172 -310 238 -8 9 -43 38 -78 65 -58 44 -65 47 -80 33
-33 -30 -244 -146 -350 -192 -308 -136 -624 -209 -957 -221 -500 -20 -1010
113 -1435 373 l-64 39 -156 -79 c-210 -108 -280 -146 -280 -156 0 -5 7 -28 15
-51 8 -24 13 -45 11 -47 -2 -3 -7 5 -11 16 -3 12 -14 21 -24 21 -33 0 -137
-38 -236 -85 -132 -63 -115 -72 20 -10 17 7 44 16 60 19 21 4 11 -3 -30 -24
-60 -31 -55 -31 40 -5 28 8 68 16 90 17 22 2 46 7 53 12 6 4 17 4 22 1 6 -3
10 1 10 10 0 9 5 13 10 10 14 -9 12 -51 -2 -63 -7 -5 -58 -15 -113 -21 -121
-14 -311 -57 -459 -105 -59 -19 -104 -31 -100 -27 5 4 52 41 104 82 137 107
152 120 288 256 68 68 128 123 133 123 12 0 89 -77 89 -90 0 -25 17 -17 358
167 l82 44 -62 46 c-132 97 -269 216 -368 320 -407 430 -651 972 -701 1560
-10 109 -9 146 1 187 10 37 10 51 1 54 -25 8 -3 288 38 487 37 180 112 400
214 625 65 145 218 382 337 525 101 120 291 300 420 396 142 106 348 232 372
226 12 -3 22 6 33 32 10 20 29 54 43 76 39 60 152 195 161 192 4 -1 48 39 97
89 49 51 107 101 129 112 48 25 48 25 63 10z m-1208 -5288 c0 -5 -10 -10 -22
-10 -19 0 -20 2 -8 10 19 13 30 13 30 0z"/>
<path d="M2824 5855 c-9 -14 -14 -28 -11 -31 3 -3 13 8 22 25 19 37 12 41 -11
6z"/>
<path d="M3880 5854 c-157 -14 -418 -64 -446 -86 -6 -4 -14 -27 -18 -51 -3
-23 -9 -52 -12 -65 -6 -19 -3 -23 12 -20 16 3 19 -4 22 -48 2 -28 -4 -71 -12
-95 -8 -24 -14 -43 -13 -44 1 0 11 -5 22 -11 28 -15 29 -55 6 -143 -11 -41
-18 -78 -15 -82 2 -4 13 -5 25 -2 45 12 51 -53 14 -154 l-25 -68 22 -15 c12
-8 25 -19 30 -25 4 -5 19 -24 33 -41 29 -37 45 -76 45 -111 0 -22 3 -24 25
-19 35 9 71 -28 80 -82 5 -32 11 -42 25 -42 25 0 57 -43 65 -88 5 -27 15 -43
38 -57 22 -14 33 -30 35 -49 2 -16 15 -38 28 -48 17 -14 24 -29 24 -55 0 -19
8 -45 18 -58 18 -22 18 -22 42 -3 15 12 26 15 30 8 4 -6 15 -1 30 15 12 13 27
22 32 19 4 -3 20 3 36 14 15 10 40 22 55 26 16 4 52 22 80 41 29 19 104 54
167 79 63 24 142 58 175 75 69 35 290 111 322 111 12 0 45 9 73 20 31 12 61
18 76 14 16 -4 55 5 111 26 95 36 205 114 315 223 35 34 72 69 82 77 18 14 19
13 12 -15 l-7 -29 23 19 c54 45 118 110 118 120 0 19 -170 175 -295 271 -154
118 -411 255 -606 322 -120 42 -341 94 -469 111 -84 11 -361 21 -430 15z
m1666 -639 c32 -30 54 -55 48 -55 -11 0 -51 37 -98 89 -35 38 -10 22 50 -34z"/>
<path d="M2795 5789 c-4 -6 -5 -12 -2 -15 2 -3 7 2 10 11 7 17 1 20 -8 4z"/>
<path d="M2725 5729 c-4 -6 -5 -12 -2 -15 2 -3 7 2 10 11 7 17 1 20 -8 4z"/>
<path d="M2661 5621 c-34 -67 -35 -71 -21 -71 6 0 10 5 10 10 0 6 11 33 25 62
35 73 23 73 -14 -1z"/>
<path d="M2705 5578 c-13 -28 -22 -56 -19 -60 3 -5 1 -15 -6 -23 -9 -11 -7
-12 10 -8 14 4 26 -1 35 -13 7 -11 17 -16 21 -11 4 4 2 13 -4 19 -15 15 -16
28 -2 28 6 0 10 -7 10 -15 0 -8 5 -15 10 -15 16 0 23 27 14 58 -5 20 -8 23
-11 10 -3 -10 -9 -18 -14 -18 -6 0 -7 5 -3 12 5 8 2 9 -9 5 -20 -7 -23 17 -7
57 17 46 0 28 -25 -26z"/>
<path d="M2620 5511 c0 -5 -3 -18 -6 -28 -6 -16 -5 -16 9 2 19 23 21 35 7 35
-5 0 -10 -4 -10 -9z"/>
<path d="M2623 5436 c-17 -18 -55 -80 -84 -137 -29 -57 -54 -99 -56 -92 -4 12
-93 -78 -165 -166 -65 -81 -175 -254 -170 -269 2 -6 -1 -12 -7 -12 -6 0 -11
-9 -11 -20 0 -11 -5 -20 -10 -20 -9 0 -23 -25 -35 -60 -8 -23 -23 -51 -47 -86
-15 -23 -28 -47 -28 -53 0 -7 -7 -25 -15 -41 -8 -16 -17 -45 -20 -66 -2 -20
-9 -42 -15 -49 -6 -7 -8 -20 -4 -29 4 -11 1 -16 -10 -16 -9 0 -16 -7 -16 -15
0 -26 31 -4 37 26 3 16 9 29 14 29 12 0 13 4 -16 -86 -107 -330 -124 -806 -41
-1156 90 -380 308 -763 587 -1035 138 -134 327 -278 465 -353 l41 -22 162 87
c88 48 161 88 161 90 0 16 -274 275 -338 320 -56 39 -79 60 -71 66 9 5 2 14
-22 28 -19 12 -39 21 -46 21 -23 0 -63 23 -63 37 0 7 -6 13 -12 13 -9 0 -10 3
-2 8 6 4 16 17 22 29 10 19 9 20 -9 16 -37 -10 -82 56 -46 70 6 3 -2 6 -20 6
-19 1 -43 11 -59 26 -31 29 -44 32 -44 10 0 -18 -12 -19 -28 -3 -7 7 -12 8
-12 2 0 -6 11 -21 25 -34 34 -32 32 -44 -5 -25 -16 9 -30 21 -30 28 0 7 -16
28 -35 47 -19 18 -33 36 -30 38 3 3 -6 20 -20 38 -28 37 -32 59 -10 50 18 -6
19 -1 5 24 -7 13 -6 19 5 24 12 4 12 10 -1 43 -22 56 -48 103 -55 103 -7 0
-22 41 -33 90 l-5 25 22 -27 c26 -32 43 -37 32 -10 -3 9 -8 42 -10 72 -3 45
-3 49 4 22 16 -64 26 -51 27 34 0 59 5 88 14 94 9 6 11 22 7 61 l-7 54 25 -45
c26 -48 27 -40 4 50 -11 42 -12 76 -2 66 4 -3 12 2 17 13 10 17 20 4 85 -108
40 -70 81 -138 91 -152 30 -39 31 -17 1 26 -15 22 -32 58 -39 80 -8 22 -16 46
-18 53 -3 6 1 12 9 12 8 0 18 -8 22 -17 6 -17 7 -17 16 0 6 9 14 15 20 12 5
-4 9 2 9 13 0 10 8 27 18 38 9 11 30 45 45 76 38 76 113 157 162 175 22 8 65
18 96 23 30 4 64 12 75 17 10 6 63 11 116 12 81 1 102 -2 129 -18 l33 -20 -36
-15 c-34 -15 -48 -32 -48 -61 0 -19 37 -25 51 -9 6 8 20 14 30 14 26 0 90 68
117 126 13 27 37 75 53 107 16 31 29 63 29 70 0 21 73 169 114 232 21 33 58
80 81 105 24 25 55 58 69 73 14 15 31 25 37 21 8 -4 8 0 0 14 -6 12 -15 23
-20 27 -5 3 -9 19 -9 35 1 37 -9 50 -23 30 -9 -12 -10 -11 -5 4 7 21 -22 109
-34 104 -7 -3 -81 -65 -144 -121 l-31 -28 -3 32 c-3 26 4 38 39 70 24 22 48
39 54 39 5 0 -7 -16 -27 -35 -32 -29 -48 -55 -35 -55 2 0 32 26 67 59 62 57
63 59 41 71 -16 8 -31 9 -49 2 -15 -6 -39 -13 -54 -16 -34 -8 -85 -71 -71 -89
20 -25 24 -83 8 -122 -9 -20 -14 -43 -11 -50 3 -8 -4 -32 -15 -54 -29 -61 -42
-95 -40 -104 1 -5 -3 -6 -9 -2 -6 3 -24 -23 -42 -62 l-32 -68 -7 35 -6 35 -3
-30 c-2 -16 -2 -38 -2 -48 1 -10 -2 -16 -7 -13 -4 3 -16 -12 -26 -34 -28 -61
-37 -64 -75 -25 -31 32 -32 36 -25 82 4 26 9 71 10 100 2 28 5 56 8 60 3 5 2
15 -3 22 -6 10 -12 7 -25 -13 -17 -25 -17 -27 0 -46 17 -19 17 -22 -3 -77 -29
-85 -35 -123 -17 -123 8 0 15 -7 15 -15 0 -7 7 -18 16 -23 13 -7 14 -17 7 -53
-7 -36 -13 -45 -32 -47 -13 -2 -35 2 -48 9 -21 11 -26 9 -54 -19 -23 -24 -38
-31 -60 -28 -16 1 -31 5 -34 8 -3 3 0 28 7 57 13 57 35 68 45 21 9 -49 21 -44
21 7 -1 34 -7 53 -20 64 -10 9 -18 20 -18 24 0 5 -7 16 -16 26 -20 22 -55 9
-69 -24 -19 -42 -40 -29 -65 40 -7 18 -17 30 -22 27 -13 -8 -58 43 -58 66 0
17 -4 18 -26 10 -27 -11 -44 -6 -44 12 0 6 -11 26 -25 44 l-26 33 30 27 c27
24 48 70 37 81 -2 3 -13 0 -24 -6 -16 -8 -21 -7 -26 6 -5 12 -9 14 -18 5 -21
-21 -28 -13 -28 27 0 52 -8 71 -31 71 -22 0 -49 -36 -49 -67 0 -12 -4 -25 -10
-28 -12 -7 -12 21 -1 50 5 12 3 36 -6 60 -15 44 -9 84 8 52 6 -9 8 -21 4 -26
-9 -16 12 -22 39 -11 32 12 33 22 4 35 -29 13 -38 39 -10 31 32 -10 40 30 11
55 -12 10 -26 19 -30 19 -14 0 -39 -44 -39 -67 0 -13 -6 -23 -13 -23 -7 0 -28
-14 -45 -31 -32 -31 -32 -31 -32 -8 0 13 4 39 9 57 8 28 7 32 -9 32 -11 0 -23
-8 -29 -17 -5 -10 -12 -15 -16 -11 -11 11 12 43 32 43 30 0 26 29 -7 49 -29
16 -32 29 -9 32 5 1 14 2 19 3 6 0 10 7 10 15 0 7 6 19 14 25 21 18 30 -5 12
-30 -8 -12 -12 -29 -8 -38 6 -15 27 -41 34 -41 2 0 3 26 4 58 1 41 -3 60 -15
69 -9 6 -20 9 -24 6 -5 -3 -6 3 -3 14 10 31 -27 25 -46 -8 -17 -28 -48 -40
-48 -18 0 24 35 139 42 139 8 0 2 -36 -13 -77 -11 -30 -7 -29 29 5 17 16 35
46 41 68 11 43 16 155 8 194 -3 14 -6 29 -6 33 -1 5 -6 5 -11 2 -6 -3 -13 0
-16 9 -7 18 -30 28 -32 13 -3 -46 -52 -126 -52 -85 0 26 28 114 51 161 24 48
47 65 34 25 -4 -13 -9 -36 -12 -53 l-5 -30 18 24 c17 23 18 24 26 5 7 -15 8
-14 5 8 -5 34 9 59 22 40 6 -11 10 -10 15 4 5 14 9 15 15 6 12 -20 36 15 38
57 1 20 6 58 12 85 8 34 8 53 1 60 -7 7 -10 5 -10 -4 0 -13 -1 -13 -9 -1 -6
10 -4 27 6 50 20 47 33 101 23 101 -12 0 -36 -33 -59 -83 -13 -26 -32 -52 -42
-58 -27 -14 -24 -1 12 51 16 25 34 54 40 65 5 11 16 30 25 43 25 33 4 26 -33
-12z m-87 -276 c-12 -32 -28 -67 -37 -77 -51 -62 -93 -233 -56 -233 14 0 14
-5 -3 -45 -30 -70 -51 -231 -37 -285 6 -25 16 -48 20 -51 5 -4 11 -28 13 -53
2 -27 12 -58 24 -73 11 -14 20 -33 20 -43 0 -9 11 -22 24 -28 13 -6 27 -20 31
-31 3 -11 26 -29 50 -41 25 -12 45 -26 45 -30 0 -5 16 -18 34 -30 19 -11 38
-30 41 -40 3 -10 22 -29 41 -40 27 -17 34 -28 34 -53 0 -22 3 -28 9 -18 7 11
16 8 45 -15 20 -16 39 -37 42 -46 3 -10 14 -18 24 -18 10 0 21 -7 24 -16 4
-10 2 -13 -7 -9 -6 4 -5 1 3 -7 8 -7 16 -20 17 -28 1 -8 7 -35 13 -59 14 -57
10 -181 -6 -181 -7 0 -12 20 -12 54 -1 93 -47 196 -88 196 -8 0 -11 6 -8 15 4
10 2 13 -8 10 -9 -4 -36 19 -74 62 -32 37 -84 90 -114 118 -123 110 -236 234
-263 287 -16 31 -31 80 -34 112 -7 66 -23 65 -23 -2 0 -86 34 -152 126 -247
27 -28 68 -71 91 -97 23 -25 54 -55 70 -66 15 -12 23 -22 16 -22 -16 0 -148
115 -203 177 -50 56 -108 173 -111 223 -5 73 1 136 11 120 8 -13 10 -13 10 2
0 9 -4 19 -9 22 -5 3 -8 14 -6 24 2 9 9 51 15 92 15 94 41 212 46 207 3 -2 -2
-33 -11 -68 -8 -35 -15 -71 -15 -79 0 -28 18 11 26 55 3 22 13 49 21 61 18 28
55 162 50 183 -2 9 -9 -4 -16 -29 -7 -25 -18 -56 -25 -69 -18 -40 -20 2 -2 56
23 68 20 77 -14 41 -16 -18 -29 -28 -29 -23 0 13 46 65 57 65 5 0 13 8 16 18
4 9 16 33 27 52 l20 35 -6 -35 c-6 -34 -5 -33 25 17 43 73 65 63 36 -17z m74
-29 c0 -5 -7 -14 -15 -21 -16 -14 -18 -10 -9 14 6 17 24 22 24 7z m-290 -175
c0 -3 -4 -8 -10 -11 -5 -3 -10 -1 -10 4 0 6 5 11 10 11 6 0 10 -2 10 -4z m215
-55 c3 -11 -5 -39 -20 -67 l-27 -49 7 50 c9 65 14 85 25 85 5 0 11 -8 15 -19z
m-8 -118 c-3 -10 -5 -4 -5 12 0 17 2 24 5 18 2 -7 2 -21 0 -30z m-484 -264 c6
-22 -10 -76 -19 -66 -3 3 0 15 6 27 9 16 9 25 1 33 -13 13 -14 27 -2 27 5 0
11 -9 14 -21z m-46 -141 c-3 -7 -5 -2 -5 12 0 14 2 19 5 13 2 -7 2 -19 0 -25z
m1787 -23 c-4 -8 -1 -15 4 -15 18 0 24 -38 11 -62 -7 -13 -14 -28 -15 -35 -3
-16 -47 -104 -50 -100 -2 2 3 21 11 42 18 52 18 65 0 65 -9 0 -15 -9 -15 -22
0 -13 -9 -38 -21 -57 -11 -19 -22 -44 -23 -55 -2 -12 -9 -34 -16 -51 -7 -16
-19 -43 -26 -60 -7 -16 -15 -42 -19 -57 -5 -21 -14 -27 -43 -30 -47 -6 -62 -1
-62 22 0 21 21 32 40 20 19 -12 60 38 72 88 9 33 -8 27 -38 -15 -14 -21 -24
-31 -21 -22 3 10 11 37 17 60 7 24 18 58 25 74 8 17 19 46 26 65 8 19 42 63
76 98 65 64 76 72 67 47z m-1054 -162 c-1 -18 -19 -35 -29 -28 -9 5 -9 10 0
21 12 15 29 19 29 7z m740 -347 c0 -16 -26 -46 -41 -46 -14 0 -11 22 8 42 19
22 33 23 33 4z m-390 -31 c0 -3 -5 -11 -10 -18 -6 -7 -17 -21 -25 -32 -14 -20
-14 -20 -15 2 0 12 7 29 16 37 15 16 34 21 34 11z m350 -54 c0 -6 -5 -13 -10
-16 -15 -9 -43 3 -35 15 8 13 45 13 45 1z m-368 -73 c-4 -18 -1 -20 49 -18 68
3 79 1 54 -10 -11 -5 -45 -9 -76 -9 -49 -1 -57 2 -62 20 -8 30 1 48 22 42 13
-3 17 -11 13 -25z m198 -8 c0 -5 -9 -10 -20 -10 -11 0 -20 5 -20 10 0 6 9 10
20 10 11 0 20 -4 20 -10z m181 -103 c-10 -9 -11 -8 -5 6 3 10 9 15 12 12 3 -3
0 -11 -7 -18z m-51 -37 c-14 -10 -27 -17 -29 -14 -6 5 31 33 44 33 6 1 -1 -8
-15 -19z m-750 -200 c0 -5 -2 -10 -4 -10 -3 0 -8 5 -11 10 -3 6 -1 10 4 10 6
0 11 -4 11 -10z"/>
<path d="M3737 4305 c-15 -19 -24 -35 -19 -35 10 0 62 53 62 63 0 16 -17 5
-43 -28z"/>
<path d="M3686 4218 c-5 -21 -12 -38 -17 -38 -5 0 -9 -4 -9 -10 0 -5 5 -10 10
-10 14 0 32 49 27 74 -2 15 -6 10 -11 -16z"/>
<path d="M2696 5395 c-3 -9 -6 -24 -5 -33 0 -9 5 -4 10 12 9 32 6 48 -5 21z"/>
<path d="M2739 5409 c-5 -23 -9 -59 -7 -59 2 0 11 9 20 19 14 17 15 21 2 32
-8 6 -14 10 -15 8z"/>
<path d="M2716 5268 c-3 -10 -9 -26 -13 -35 -12 -34 -11 -43 5 -52 15 -8 13
-11 -10 -20 -16 -6 -28 -15 -28 -21 0 -6 5 -8 11 -4 6 3 15 0 20 -7 7 -11 9
-10 9 3 0 11 5 15 14 12 7 -3 16 3 20 13 3 10 9 24 12 32 5 10 1 11 -15 6 -23
-7 -27 5 -11 36 7 13 8 25 1 37 -9 16 -10 16 -15 0z"/>
<path d="M2788 5080 c-25 -56 -30 -78 -18 -85 5 -3 10 2 10 12 0 10 7 29 16
41 8 12 14 32 11 45 -3 20 -5 18 -19 -13z"/>
<path d="M2906 4986 c-14 -46 -32 -96 -40 -112 -8 -15 -13 -32 -10 -36 9 -14
27 -4 30 18 8 54 25 116 37 136 19 30 30 78 18 78 -5 0 -21 -38 -35 -84z"/>
<path d="M6036 5031 c-10 -16 -141 -99 -211 -134 -110 -55 -391 -146 -499
-162 -169 -25 -513 -107 -591 -141 -17 -7 -75 -31 -130 -52 -163 -65 -248
-102 -275 -120 -43 -29 -72 -42 -91 -42 -10 0 -22 -7 -27 -16 -7 -13 -24 -20
-55 -23 -5 -1 -6 -5 -3 -10 3 -5 -18 -21 -47 -36 -28 -15 -77 -44 -107 -65
-30 -20 -82 -54 -114 -76 -63 -42 -102 -88 -142 -169 -14 -27 -43 -84 -64
-125 -22 -41 -40 -82 -40 -91 0 -8 -24 -67 -52 -131 -54 -117 -87 -158 -192
-232 -20 -14 -23 -21 -14 -28 10 -6 8 -8 -4 -8 -11 0 -18 -8 -18 -20 0 -11 -6
-20 -12 -21 -7 0 -2 -5 12 -10 18 -7 21 -12 11 -18 -9 -6 -6 -10 13 -15 14 -3
26 -10 26 -15 0 -5 14 -13 32 -16 18 -4 57 -21 88 -38 30 -16 70 -35 88 -41
19 -7 33 -15 32 -20 -1 -8 15 -24 95 -93 l48 -42 -37 -6 c-20 -4 -60 -5 -89
-2 -29 4 -74 9 -100 12 -27 3 -57 10 -67 15 -10 6 -32 10 -49 10 -39 0 -62 10
-55 22 7 11 -72 7 -126 -6 -16 -4 -13 -2 7 6 47 19 48 25 8 38 -41 13 -142 8
-175 -10 -29 -15 -36 -6 -21 27 12 27 12 27 -7 10 -12 -11 -22 -14 -26 -8 -4
5 -2 12 4 16 5 3 10 11 10 17 0 16 -69 -74 -76 -99 -3 -11 -14 -23 -25 -26
-11 -3 -19 -14 -19 -25 0 -12 -4 -32 -10 -47 -10 -26 -10 -26 -35 -8 -13 10
-25 24 -25 31 0 7 -5 10 -10 7 -6 -3 -13 1 -17 10 -7 20 -53 68 -59 62 -2 -2
4 -12 14 -23 10 -10 26 -40 36 -67 10 -26 22 -45 27 -41 5 3 10 0 10 -5 2 -17
4 -23 18 -66 16 -47 31 -67 31 -41 0 10 5 16 13 13 6 -2 11 -10 9 -17 -5 -20
8 -50 21 -47 7 1 12 -12 14 -31 0 -18 6 -47 12 -64 12 -34 6 -52 -9 -28 -8 12
-10 11 -10 -6 0 -12 6 -27 14 -33 8 -7 24 -37 37 -69 12 -31 25 -61 29 -67 4
-5 6 -18 4 -28 -3 -19 30 -60 40 -49 3 3 6 -2 6 -11 0 -9 5 -19 11 -23 7 -4 9
0 5 13 -4 12 -1 25 9 33 8 7 15 19 15 27 0 8 5 11 10 8 6 -3 10 -13 10 -22 0
-19 88 -168 198 -338 47 -71 87 -132 89 -135 3 -3 26 7 51 21 26 14 193 104
372 199 179 95 333 179 342 187 9 8 15 20 13 26 -2 7 -6 46 -9 87 -4 59 -3 69
5 48 11 -29 29 -38 29 -15 0 6 -7 36 -14 65 -8 30 -12 62 -8 73 6 15 12 6 31
-41 25 -62 39 -74 48 -40 3 11 8 18 12 15 4 -2 4 18 1 45 -8 59 11 59 30 -1
13 -38 40 -55 40 -24 0 28 30 3 54 -46 l23 -48 168 84 c93 46 175 91 183 99
13 13 6 24 -59 96 -94 103 -161 161 -274 235 -126 83 -171 105 -244 121 -36 8
-70 19 -75 25 -15 15 152 4 191 -13 62 -28 225 -150 273 -205 18 -21 77 -84
132 -140 l99 -103 76 42 c68 37 78 47 99 93 24 51 26 53 150 113 69 34 128 62
131 62 3 0 -13 -19 -36 -41 -22 -23 -41 -45 -41 -50 0 -11 62 17 215 99 120
63 133 73 169 126 21 32 53 91 70 133 l32 74 257 127 c142 70 255 121 252 114
-3 -8 -5 -16 -5 -18 0 -2 -7 -4 -15 -4 -27 0 -176 -152 -163 -166 3 -2 30 7
62 21 72 32 79 32 30 -1 -52 -35 -124 -105 -124 -121 0 -7 -4 -13 -9 -13 -15
0 -177 -79 -202 -99 -13 -10 -42 -27 -64 -38 -22 -10 -110 -58 -195 -105 -85
-48 -180 -100 -210 -116 -30 -16 -54 -35 -53 -41 2 -6 -4 -8 -14 -4 -10 4 -14
2 -10 -4 4 -6 -6 -16 -23 -22 -17 -6 -42 -16 -58 -21 -15 -6 -41 -21 -57 -34
-29 -23 -27 -23 30 4 41 19 83 29 133 33 39 3 72 4 72 2 0 -2 -51 -31 -114
-64 -110 -59 -116 -61 -188 -61 -96 0 -151 -19 -325 -113 -76 -41 -187 -100
-248 -132 -126 -67 -298 -165 -305 -174 -9 -11 -83 -56 -135 -81 -27 -14 -52
-27 -55 -30 -3 -3 -52 -30 -110 -59 -58 -30 -127 -67 -155 -81 -50 -27 -55
-29 -87 -38 -10 -2 -18 -8 -18 -13 0 -5 -9 -9 -20 -9 -11 0 -20 -4 -20 -8 0
-5 -21 -14 -47 -20 -77 -20 -80 -24 -50 -68 15 -22 70 -104 122 -184 l96 -145
-97 100 c-53 55 -134 143 -179 195 -113 131 -290 300 -348 334 -69 40 -68 26
0 -19 71 -47 200 -174 239 -235 19 -30 35 -44 46 -42 13 2 16 -4 16 -27 -1
-21 11 -44 38 -78 22 -26 48 -61 58 -78 l17 -30 -21 25 c-12 14 -31 37 -43 51
-12 14 -33 42 -47 62 -14 20 -29 37 -33 37 -5 0 -6 -3 -4 -8 3 -4 -41 -30 -96
-57 -56 -28 -105 -54 -108 -59 -4 -5 -12 -5 -19 -1 -9 5 -11 4 -6 -4 5 -8 -3
-16 -23 -24 -17 -6 -31 -15 -31 -20 0 -12 128 -69 249 -111 222 -77 418 -113
671 -123 119 -5 157 -9 163 -20 8 -12 11 -11 23 5 10 15 30 20 94 26 185 15
464 89 640 167 137 62 279 141 274 153 -3 7 -32 25 -66 40 -67 31 -130 84
-173 145 -22 33 -30 38 -48 32 -24 -9 -61 1 -72 19 -8 12 -131 4 -150 -10 -5
-4 -31 -11 -57 -14 -27 -4 -48 -12 -48 -17 0 -6 -14 -15 -30 -21 -17 -5 -37
-23 -45 -39 -9 -16 -33 -36 -58 -47 -35 -16 -47 -28 -61 -63 -10 -24 -28 -55
-41 -69 -13 -14 -30 -51 -38 -83 -8 -31 -28 -72 -44 -91 -15 -18 -36 -48 -45
-65 -10 -18 -22 -29 -28 -26 -6 4 -8 10 -5 15 3 4 12 66 20 137 8 70 19 151
24 178 13 67 34 445 26 487 l-5 33 176 88 c96 49 178 86 181 84 9 -10 -8 -27
-26 -27 -32 0 -41 -23 -18 -45 15 -15 19 -16 14 -4 -3 9 -1 22 3 30 8 11 13
10 28 -7 11 -11 22 -30 26 -41 4 -11 26 -41 49 -66 47 -52 107 -130 107 -141
0 -4 9 -16 20 -28 24 -26 26 -17 4 25 -32 61 -35 69 -31 73 2 3 18 -11 35 -31
17 -19 35 -35 39 -35 5 0 14 -14 22 -31 7 -16 16 -28 19 -25 4 5 24 -20 99
-122 9 -12 18 -20 21 -17 6 6 -30 75 -39 75 -4 0 -14 17 -24 37 -9 21 -25 54
-35 73 -21 39 -24 53 -11 48 12 -4 141 -168 141 -179 0 -5 6 -8 13 -7 6 2 11
-5 9 -14 -1 -9 2 -19 8 -23 6 -3 7 0 4 9 -3 9 -1 16 5 16 6 0 11 -4 11 -9 0
-5 6 -16 13 -23 7 -7 35 -47 62 -88 52 -79 164 -230 171 -230 2 0 -28 48 -67
106 -38 59 -68 112 -66 117 6 19 27 19 27 0 0 -15 2 -15 10 -3 7 12 10 11 16
-5 4 -11 10 -22 14 -25 3 -3 14 -18 23 -33 10 -16 25 -36 33 -45 9 -9 34 -37
56 -62 36 -41 38 -42 23 -13 -23 49 -10 40 30 -19 55 -83 41 -47 -29 72 l-64
108 56 38 c76 50 428 405 415 418 -3 3 -2 10 3 17 5 9 10 7 16 -7 7 -15 7 -14
4 6 -4 18 1 29 15 39 12 7 18 15 15 18 -9 10 28 64 41 59 6 -3 15 3 18 14 3
10 17 25 30 34 14 9 25 25 25 36 0 11 6 20 13 20 6 0 22 19 33 43 12 23 35 69
52 102 64 127 136 344 148 444 l7 61 61 34 c33 20 56 35 50 36 -12 0 -397
-207 -437 -235 -17 -12 -51 -15 -152 -14 l-130 0 40 19 c22 10 46 19 54 19 8
1 24 10 35 20 12 11 77 51 146 89 122 67 127 69 200 69 85 1 155 21 155 43 1
8 4 40 8 70 34 273 14 551 -59 820 -14 52 -29 104 -34 115 -4 11 -13 38 -20
60 -13 41 -50 126 -98 225 -21 42 -135 242 -147 258 -1 1 -44 -23 -96 -54 -52
-32 -126 -72 -164 -90 -46 -21 -81 -46 -102 -71 -17 -22 -58 -54 -92 -72 -38
-20 -67 -43 -76 -61 -22 -43 -84 -99 -135 -124 -24 -11 -50 -32 -57 -46 -7
-14 -31 -46 -53 -72 -22 -26 -47 -66 -55 -88 -23 -65 -85 -150 -142 -194 -36
-28 -54 -50 -59 -71 -9 -45 -68 -128 -107 -148 -20 -11 -38 -31 -45 -50 -15
-40 -59 -88 -112 -123 -22 -15 -43 -37 -46 -50 -5 -19 -9 -22 -24 -14 -25 13
-40 13 -40 -1 0 -6 7 -9 15 -5 12 4 14 0 9 -21 -5 -20 -4 -24 7 -19 8 4 6 1
-3 -7 -10 -8 -19 -25 -19 -38 -1 -17 -3 -19 -6 -6 -2 9 -13 17 -24 17 -19 0
-19 -1 2 -30 20 -27 21 -31 7 -47 -8 -10 -18 -25 -21 -33 -4 -12 -6 -12 -6 1
-1 22 -22 29 -85 29 -29 0 -78 5 -109 11 -48 10 -60 9 -81 -5 -24 -15 -27 -15
-55 2 -23 14 -28 21 -19 30 7 7 20 12 30 12 10 0 18 5 18 11 0 5 -4 8 -9 5 -4
-3 -27 -8 -49 -11 -41 -5 -67 10 -38 21 10 4 16 18 16 37 0 24 -3 28 -12 19
-13 -13 -63 -15 -93 -3 -18 8 -16 10 15 24 19 9 42 18 50 21 33 12 115 65 112
71 -2 4 2 11 9 16 8 4 10 11 7 15 -4 3 -30 -14 -59 -39 -54 -47 -95 -65 -112
-48 -6 6 1 15 19 25 22 11 24 16 12 17 -10 1 -24 2 -30 3 -25 2 -12 31 21 48
19 9 37 21 40 26 3 5 16 12 29 16 38 12 24 25 -22 21 -34 -3 -46 0 -51 12 -6
18 0 23 60 55 37 20 38 21 17 29 -12 5 -29 6 -37 3 -8 -4 -15 -2 -15 3 0 6 19
18 43 28 23 11 53 26 67 35 25 16 96 44 135 53 11 3 2 5 -21 6 -22 0 -45 -4
-51 -10 -8 -8 -17 -8 -29 -1 -12 6 -27 6 -47 0 -28 -10 -46 -1 -47 24 0 8 74
58 87 58 23 1 118 57 118 70 0 8 7 15 16 15 8 0 28 11 45 24 16 13 56 40 89
60 51 32 63 45 74 80 6 23 19 45 27 48 9 3 12 12 9 24 -4 13 -1 19 8 19 8 0
35 12 61 26 38 21 46 23 46 10 0 -9 4 -16 9 -16 14 0 33 28 27 39 -9 14 26 31
63 31 17 0 31 5 31 11 0 8 4 8 15 -1 16 -13 71 1 117 32 31 21 178 71 186 64
3 -3 22 10 43 29 38 34 90 54 201 77 32 7 58 15 58 19 0 3 18 9 40 13 22 3 40
10 40 15 0 9 63 26 87 24 7 0 10 4 6 10 -4 6 0 8 10 4 23 -9 81 14 162 63 84
51 129 87 114 92 -6 2 11 18 38 35 52 34 143 112 131 113 -4 0 -9 -4 -12 -9z
m-176 -155 c-8 -8 -26 -17 -40 -21 -23 -6 -23 -5 5 14 34 24 57 28 35 7z
m-213 -97 c-49 -20 -181 -58 -227 -66 -52 -9 6 16 85 36 44 11 98 27 120 35
60 22 78 18 22 -5z m-260 -75 c-3 -3 -12 -4 -19 -1 -8 3 -5 6 6 6 11 1 17 -2
13 -5z m-417 -84 c-8 -5 -22 -9 -30 -9 -10 0 -8 3 5 9 27 12 43 12 25 0z m-85
-30 c-3 -5 -14 -10 -23 -9 -14 0 -13 2 3 9 27 11 27 11 20 0z m-395 -170 c0
-5 -3 -10 -7 -10 -5 0 -19 -3 -33 -6 -24 -5 -24 -5 -6 10 22 18 46 21 46 6z
m-22 -140 c-7 -11 -22 -20 -33 -20 -19 1 -19 2 4 20 30 26 45 26 29 0z m-74
-89 c6 -9 -82 -71 -100 -71 -6 0 -15 5 -22 12 -19 19 40 68 83 68 19 0 36 -4
39 -9z m-213 -71 c-13 -11 -30 -20 -39 -20 -19 0 -15 5 23 24 40 21 45 20 16
-4z m-71 -220 c0 -5 -7 -10 -15 -10 -8 0 -15 5 -15 10 0 6 7 10 15 10 8 0 15
-4 15 -10z m-82 -43 c-7 -7 -42 -22 -77 -34 -73 -25 -73 -21 1 18 58 30 99 39
76 16z m-141 -82 c0 -8 -6 -15 -14 -15 -14 0 -17 12 -6 23 11 11 20 8 20 -8z
m-157 -35 c0 -5 -5 -10 -11 -10 -5 0 -7 5 -4 10 3 6 8 10 11 10 2 0 4 -4 4
-10z m137 -61 c-3 -11 0 -40 8 -64 13 -46 11 -55 -12 -55 -8 0 -26 -11 -40
-25 -15 -13 -29 -22 -32 -19 -3 2 7 16 22 30 27 25 36 54 17 54 -5 0 -10 7
-10 15 0 8 5 15 10 15 6 0 10 16 10 35 0 26 4 35 16 35 12 0 15 -6 11 -21z
m-17 -194 c0 -8 -2 -15 -4 -15 -2 0 -6 7 -10 15 -3 8 -1 15 4 15 6 0 10 -7 10
-15z m-50 -26 c0 -11 -4 -17 -10 -14 -5 3 -10 15 -10 26 0 11 5 17 10 14 6 -3
10 -15 10 -26z m2421 4 c-11 -5 -11 -7 0 -15 12 -8 12 -9 0 -6 -22 6 -25 28
-4 27 12 0 14 -2 4 -6z m-2526 -73 c4 -6 -7 -10 -25 -10 -18 0 -29 4 -25 10 3
6 15 10 25 10 10 0 22 -4 25 -10z m222 -36 c-3 -3 -12 -4 -19 -1 -8 3 -5 6 6
6 11 1 17 -2 13 -5z m-60 -10 c-3 -3 -12 -4 -19 -1 -8 3 -5 6 6 6 11 1 17 -2
13 -5z m-47 -14 c0 -5 -5 -10 -11 -10 -5 0 -7 5 -4 10 3 6 8 10 11 10 2 0 4
-4 4 -10z m486 -4 c29 -7 64 -11 78 -9 19 4 26 1 26 -10 0 -12 -18 -15 -115
-13 -63 0 -115 4 -115 7 0 10 44 38 60 38 8 1 38 -5 66 -13z m-356 -86 c0 -5
-4 -10 -10 -10 -5 0 -10 5 -10 10 0 6 5 10 10 10 6 0 10 -4 10 -10z m383 -61
c-7 -7 -21 -7 -44 -1 l-34 10 45 1 c31 1 41 -2 33 -10z m-218 -77 c-7 -7 -55
39 -55 52 0 5 13 -3 30 -19 16 -16 28 -31 25 -33z m60 -22 c3 -5 1 -10 -4 -10
-6 0 -11 5 -11 10 0 6 2 10 4 10 3 0 8 -4 11 -10z m-55 -50 c-8 -5 -22 -10
-30 -10 -13 0 -13 1 0 10 8 5 22 10 30 10 13 0 13 -1 0 -10z m-144 -41 c3 -5
-6 -9 -20 -9 -16 0 -26 6 -26 14 0 15 36 11 46 -5z m-566 -69 c24 -8 24 -8 -5
-8 -16 0 -39 3 -50 8 -18 8 -18 9 5 8 14 0 36 -4 50 -8z m-310 -251 c0 -11 -4
-17 -10 -14 -5 3 -10 13 -10 21 0 8 5 14 10 14 6 0 10 -9 10 -21z m1842 -56
c49 -72 164 -260 199 -328 17 -33 39 -71 49 -85 26 -38 104 -186 92 -175 -6 6
-45 71 -87 145 -42 74 -83 146 -91 160 -8 14 -34 58 -57 99 -23 40 -68 107
-99 147 -32 41 -58 76 -58 79 0 18 24 -2 52 -42z m-1812 -48 c0 -8 -4 -15 -10
-15 -5 0 -10 7 -10 15 0 8 5 15 10 15 6 0 10 -7 10 -15z m2136 -560 c17 -27
44 -75 59 -105 15 -30 30 -57 34 -60 3 -3 14 -21 24 -40 l17 -35 -24 29 c-13
15 -33 47 -45 70 -28 53 -38 70 -84 133 -40 56 -97 161 -97 178 0 5 19 -19 42
-55 22 -36 56 -87 74 -115z m53 -35 c11 -22 15 -38 11 -35 -8 5 -40 63 -40 72
0 13 12 -3 29 -37z"/>
<path d="M2780 4953 c0 -21 3 -24 9 -14 5 8 7 20 4 28 -8 21 -13 15 -13 -14z"/>
<path d="M3408 4932 c-11 -13 -11 -14 0 -8 7 4 20 2 28 -5 12 -10 13 -9 8 6
-6 14 -4 16 7 10 8 -5 11 -4 6 0 -13 15 -36 14 -49 -3z"/>
<path d="M2717 4878 c-15 -18 -27 -39 -27 -47 0 -27 -52 -102 -76 -111 -32
-13 -52 -54 -34 -75 16 -19 30 -19 30 -1 0 8 7 16 15 20 19 7 19 -1 0 -21 -8
-8 -12 -19 -9 -25 11 -17 57 40 48 60 -4 9 -6 24 -5 32 3 23 33 92 53 121 17
25 41 79 35 79 -2 0 -15 -15 -30 -32z"/>
<path d="M2611 4884 c0 -11 3 -14 6 -6 3 7 2 16 -1 19 -3 4 -6 -2 -5 -13z"/>
<path d="M2630 4892 c0 -14 11 -21 26 -15 21 8 17 23 -6 23 -11 0 -20 -4 -20
-8z"/>
<path d="M2757 4843 c-10 -9 -9 -23 2 -23 5 0 11 7 15 15 5 15 -5 20 -17 8z"/>
<path d="M2745 4719 c-4 -25 -24 -55 -61 -93 -54 -56 -60 -69 -48 -101 5 -13
8 -14 15 -3 7 10 9 9 9 -4 0 -46 41 -5 97 99 20 37 21 43 8 57 -16 16 -20 36
-7 36 4 0 13 10 21 23 13 20 13 21 -1 9 -13 -10 -17 -10 -21 0 -2 7 -8 -3 -12
-23z m-1 -96 c-15 -21 -32 -39 -36 -41 -4 -2 -8 -10 -8 -18 0 -8 -7 -14 -16
-14 -13 0 -11 6 8 29 12 17 31 41 41 55 10 14 23 26 29 26 6 0 -2 -17 -18 -37z"/>
<path d="M3625 4699 c-4 -6 -5 -12 -2 -15 2 -3 7 2 10 11 7 17 1 20 -8 4z"/>
<path d="M3201 4674 c0 -11 3 -14 6 -6 3 7 2 16 -1 19 -3 4 -6 -2 -5 -13z"/>
<path d="M3190 4631 c0 -25 6 -27 13 -6 4 8 2 17 -3 20 -6 4 -10 -3 -10 -14z"/>
<path d="M3621 4605 c-14 -14 -23 -27 -20 -29 8 -8 69 35 63 45 -8 13 -16 10
-43 -16z"/>
<path d="M3686 4593 c-6 -14 -5 -15 5 -6 7 7 10 15 7 18 -3 3 -9 -2 -12 -12z"/>
<path d="M3555 4576 c-11 -8 -16 -20 -12 -29 3 -9 2 -19 -3 -22 -5 -3 -10 3
-12 12 -2 11 -11 -1 -21 -31 -19 -57 -21 -76 -7 -76 6 0 10 5 10 10 0 6 18 36
41 66 22 31 38 58 34 62 -3 4 -10 0 -15 -8 -6 -9 -10 -10 -10 -3 0 7 8 17 18
22 9 6 12 11 6 11 -5 0 -19 -6 -29 -14z"/>
<path d="M3718 4576 c-21 -15 -23 -26 -5 -26 22 0 43 18 32 29 -7 6 -16 5 -27
-3z"/>
<path d="M2796 4513 c-6 -14 -5 -15 5 -6 7 7 10 15 7 18 -3 3 -9 -2 -12 -12z"/>
<path d="M2955 4500 c-3 -5 -1 -10 4 -10 6 0 11 5 11 10 0 6 -2 10 -4 10 -3 0
-8 -4 -11 -10z"/>
<path d="M2765 4480 c-3 -5 -1 -10 4 -10 6 0 11 5 11 10 0 6 -2 10 -4 10 -3 0
-8 -4 -11 -10z"/>
<path d="M2926 4471 c-4 -7 -5 -15 -2 -18 9 -9 19 4 14 18 -4 11 -6 11 -12 0z"/>
<path d="M2740 4419 c-15 -28 -4 -38 15 -13 17 22 19 34 5 34 -5 0 -14 -9 -20
-21z"/>
<path d="M2585 4420 c-3 -5 -1 -10 4 -10 6 0 11 5 11 10 0 6 -2 10 -4 10 -3 0
-8 -4 -11 -10z"/>
<path d="M2785 4401 c-9 -19 -11 -32 -5 -36 10 -6 14 1 23 43 7 30 0 28 -18
-7z"/>
<path d="M2843 4378 c-11 -13 -25 -36 -30 -52 -10 -32 -33 -47 -33 -23 0 18
-39 67 -40 50 0 -6 4 -14 9 -17 5 -4 12 -24 16 -46 6 -35 9 -39 25 -30 28 15
48 12 67 -10 17 -19 18 -18 30 28 8 26 16 64 20 85 5 34 4 37 -19 37 -13 0
-34 -10 -45 -22z m31 -52 c-3 -9 -10 -16 -15 -16 -6 0 -5 9 1 21 13 24 24 20
14 -5z"/>
<path d="M3514 4377 c-33 -38 -48 -76 -65 -164 -10 -53 -16 -99 -14 -101 6 -6
30 59 27 70 -1 4 4 5 11 3 16 -6 67 62 67 89 0 12 12 41 25 65 14 24 23 46 20
50 -3 3 -10 -1 -15 -9 -7 -12 -12 -12 -22 -2 -15 15 -20 15 -34 -1z"/>
<path d="M3024 4345 c-38 -19 -57 -39 -75 -80 -26 -56 -23 -68 16 -86 40 -19
58 -8 49 28 -3 12 -1 30 6 40 10 16 10 15 5 -7 -5 -21 -4 -22 5 -8 6 10 9 38
7 62 -2 26 1 47 7 49 6 3 9 6 6 9 -3 3 -15 0 -26 -7z m-20 -89 c-10 -20 -21
-36 -26 -36 -9 0 8 48 24 67 19 23 20 7 2 -31z"/>
<path d="M3544 4212 c-14 -9 -37 -52 -31 -58 6 -6 47 45 47 57 0 11 -2 11 -16
1z"/>
<path d="M3006 4061 c-28 -68 -28 -69 -10 -97 25 -39 34 -44 56 -31 11 7 18
24 18 43 0 16 5 56 11 88 12 67 5 86 -10 28 -13 -45 -41 -77 -41 -46 0 11 4
34 9 52 17 57 -5 34 -33 -37z m20 -78 c-10 -10 -19 5 -10 18 6 11 8 11 12 0 2
-7 1 -15 -2 -18z"/>
<path d="M4375 4028 l-20 -21 23 12 c12 6 22 16 22 21 0 13 -2 12 -25 -12z"/>
<path d="M4130 3950 c-13 -8 -12 -10 3 -10 9 0 17 5 17 10 0 12 -1 12 -20 0z"/>
<path d="M4210 3801 c0 -5 -8 -12 -17 -14 -15 -4 -15 -5 -2 -6 9 0 22 6 29 14
9 10 9 15 1 15 -6 0 -11 -4 -11 -9z"/>
<path d="M4438 3773 c-29 -4 -36 -17 -17 -29 6 -3 16 -1 22 5 6 6 19 11 30 11
10 0 15 5 12 10 -3 6 -9 9 -13 9 -4 -1 -19 -4 -34 -6z"/>
<path d="M4105 3759 c-4 -6 -5 -13 -2 -16 7 -7 27 6 27 18 0 12 -17 12 -25 -2z"/>
<path d="M4500 3730 c0 -5 7 -7 15 -4 8 4 15 8 15 10 0 2 -7 4 -15 4 -8 0 -15
-4 -15 -10z"/>
<path d="M4405 3711 c-16 -3 -25 -9 -20 -12 6 -3 30 0 55 7 47 13 19 17 -35 5z"/>
<path d="M4225 3590 c-3 -5 -1 -10 4 -10 6 0 11 5 11 10 0 6 -2 10 -4 10 -3 0
-8 -4 -11 -10z"/>
<path d="M6397 3493 c-3 -5 -4 -32 -2 -60 2 -42 0 -53 -12 -53 -13 0 -13 -3
-3 -15 21 -26 26 -17 29 60 2 69 -1 86 -12 68z"/>
<path d="M3250 3460 c-8 -5 -10 -10 -5 -10 6 0 17 5 25 10 8 5 11 10 5 10 -5
0 -17 -5 -25 -10z"/>
<path d="M4210 3450 c19 -13 30 -13 30 0 0 6 -10 10 -22 10 -19 0 -20 -2 -8
-10z"/>
<path d="M4273 3448 c21 -7 32 -7 40 1 8 8 0 11 -28 10 -40 -1 -40 -1 -12 -11z"/>
<path d="M5878 3397 c-43 -23 -78 -47 -78 -54 0 -6 -6 -18 -14 -25 -17 -18
-72 -116 -81 -145 -8 -27 13 -32 21 -5 10 31 56 116 80 148 13 18 45 44 71 60
42 24 95 65 82 63 -2 0 -39 -19 -81 -42z"/>
<path d="M5905 3367 c-57 -38 -141 -137 -128 -150 5 -6 12 -1 45 30 18 17 38
41 38 47 0 6 67 72 98 96 42 34 10 20 -53 -23z"/>
<path d="M3337 3383 c-10 -9 -9 -23 2 -23 5 0 11 7 15 15 5 15 -5 20 -17 8z"/>
<path d="M6380 3263 c0 -4 5 -15 10 -23 8 -13 10 -13 10 2 0 9 -4 20 -10 23
-5 3 -10 3 -10 -2z"/>
<path d="M6340 3183 c-6 -36 -17 -81 -25 -99 -7 -18 -17 -59 -20 -91 -4 -32
-14 -66 -23 -75 -11 -13 -12 -18 -2 -18 8 0 10 -8 6 -25 -4 -14 -2 -25 4 -25
5 0 10 11 10 25 0 14 4 25 9 25 4 0 11 21 14 48 3 26 15 65 26 87 12 21 21 51
21 66 0 14 6 46 14 71 10 35 11 48 1 61 -7 10 -15 17 -18 17 -3 0 -10 -30 -17
-67z"/>
<path d="M2780 3150 c6 -11 13 -20 16 -20 2 0 0 9 -6 20 -6 11 -13 20 -16 20
-2 0 0 -9 6 -20z"/>
<path d="M2820 3103 c0 -6 25 -38 55 -70 30 -32 55 -53 55 -46 0 6 -25 37 -55
69 -30 32 -55 53 -55 47z"/>
<path d="M5125 2898 c-32 -19 -37 -26 -73 -100 -2 -5 1 -8 5 -8 5 0 17 16 28
36 10 19 32 46 48 60 30 25 26 31 -8 12z"/>
<path d="M5120 2845 c-7 -9 -11 -17 -9 -20 3 -2 10 5 17 15 14 24 10 26 -8 5z"/>
<path d="M5069 2759 c-23 -19 -23 -20 -2 -10 12 6 25 16 28 21 10 16 -1 12
-26 -11z"/>
<path d="M6405 2715 c-11 -30 -23 -55 -27 -55 -4 0 -8 -5 -8 -11 0 -8 4 -8 13
-1 14 12 52 110 45 118 -3 2 -13 -21 -23 -51z"/>
<path d="M2961 2674 c0 -11 3 -14 6 -6 3 7 2 16 -1 19 -3 4 -6 -2 -5 -13z"/>
<path d="M6343 2580 c-13 -27 -23 -53 -23 -59 0 -5 -3 -11 -7 -13 -8 -3 -53
-93 -53 -104 0 -17 23 14 41 54 11 26 32 69 45 95 14 27 24 55 22 62 -2 7 -13
-9 -25 -35z"/>
<path d="M4267 2440 c6 -38 10 -46 19 -38 3 3 -2 21 -10 39 l-15 34 6 -35z"/>
<path d="M3145 2360 c-6 -9 16 -40 29 -40 12 0 6 28 -8 39 -10 8 -16 9 -21 1z"/>
<path d="M5516 1587 c3 -10 9 -15 12 -12 3 3 0 11 -7 18 -10 9 -11 8 -5 -6z"/>
</g>
</svg>
